solid OpenSCAD_Model
  facet normal -1 0 0
    outer loop
      vertex -20 -13.5 -4.7
      vertex -20 -13.5 4.7
      vertex -20 11.5 -4.7
    endloop
  endfacet
  facet normal -1 0 0
    outer loop
      vertex -20 11.5 -4.7
      vertex -20 -13.5 4.7
      vertex -20 11.5 4.7
    endloop
  endfacet
  facet normal 0 -1 0
    outer loop
      vertex -20 -13.5 4.7
      vertex -20 -13.5 -4.7
      vertex 30 -13.5 -4.7
    endloop
  endfacet
  facet normal 0 -1 0
    outer loop
      vertex 30 -13.5 4.7
      vertex -20 -13.5 4.7
      vertex 30 -13.5 -4.7
    endloop
  endfacet
  facet normal 0 0 -1
    outer loop
      vertex 24.0343 -2.97205 -4.7
      vertex 30 -13.5 -4.7
      vertex 22.4718 -1.83683 -4.7
    endloop
  endfacet
  facet normal 0 0 -1
    outer loop
      vertex -20 -13.5 -4.7
      vertex -6 0 -4.7
      vertex -5.86889 -1.24747 -4.7
    endloop
  endfacet
  facet normal 0 0 -1
    outer loop
      vertex -20 -13.5 -4.7
      vertex -5.86889 -1.24747 -4.7
      vertex -5.48127 -2.44042 -4.7
    endloop
  endfacet
  facet normal 0 0 -1
    outer loop
      vertex -20 -13.5 -4.7
      vertex -5.48127 -2.44042 -4.7
      vertex -4.8541 -3.52671 -4.7
    endloop
  endfacet
  facet normal 0 0 -1
    outer loop
      vertex -20 -13.5 -4.7
      vertex -4.8541 -3.52671 -4.7
      vertex -4.01478 -4.45887 -4.7
    endloop
  endfacet
  facet normal 0 0 -1
    outer loop
      vertex -20 -13.5 -4.7
      vertex -4.01478 -4.45887 -4.7
      vertex -3 -5.19615 -4.7
    endloop
  endfacet
  facet normal 0 0 -1
    outer loop
      vertex -20 -13.5 -4.7
      vertex -3 -5.19615 -4.7
      vertex -1.8541 -5.70634 -4.7
    endloop
  endfacet
  facet normal 0 0 -1
    outer loop
      vertex -20 -13.5 -4.7
      vertex -1.8541 -5.70634 -4.7
      vertex 30 -13.5 -4.7
    endloop
  endfacet
  facet normal 0 0 -1
    outer loop
      vertex -1.8541 -5.70634 -4.7
      vertex -0.627171 -5.96713 -4.7
      vertex 30 -13.5 -4.7
    endloop
  endfacet
  facet normal 0 0 -1
    outer loop
      vertex 1.8541 -5.70634 -4.7
      vertex 30 -13.5 -4.7
      vertex 0.627171 -5.96713 -4.7
    endloop
  endfacet
  facet normal 0 0 -1
    outer loop
      vertex 3 -5.19615 -4.7
      vertex 30 -13.5 -4.7
      vertex 1.8541 -5.70634 -4.7
    endloop
  endfacet
  facet normal 0 0 -1
    outer loop
      vertex 4.01478 -4.45887 -4.7
      vertex 30 -13.5 -4.7
      vertex 3 -5.19615 -4.7
    endloop
  endfacet
  facet normal 0 0 -1
    outer loop
      vertex 4.8541 -3.52671 -4.7
      vertex 30 -13.5 -4.7
      vertex 4.01478 -4.45887 -4.7
    endloop
  endfacet
  facet normal 0 0 -1
    outer loop
      vertex 0.627171 -5.96713 -4.7
      vertex 30 -13.5 -4.7
      vertex -0.627171 -5.96713 -4.7
    endloop
  endfacet
  facet normal 0 0 -1
    outer loop
      vertex 6 11.5 -4.7
      vertex 30 -13.5 -4.7
      vertex 6 0 -4.7
    endloop
  endfacet
  facet normal 0 0 -1
    outer loop
      vertex 4.8541 -3.52671 -4.7
      vertex 5.48127 -2.44042 -4.7
      vertex 30 -13.5 -4.7
    endloop
  endfacet
  facet normal 0 0 -1
    outer loop
      vertex 30 -13.5 -4.7
      vertex 5.86889 -1.24747 -4.7
      vertex 6 0 -4.7
    endloop
  endfacet
  facet normal 0 0 -1
    outer loop
      vertex -12.4718 -1.83683 -4.7
      vertex -6 0 -4.7
      vertex -14.0343 -2.97205 -4.7
    endloop
  endfacet
  facet normal 0 0 -1
    outer loop
      vertex 22.4718 1.83683 -4.7
      vertex 6 11.5 -4.7
      vertex 30 11.5 -4.7
    endloop
  endfacet
  facet normal 0 0 -1
    outer loop
      vertex -20 -13.5 -4.7
      vertex -20 11.5 -4.7
      vertex -18.125 0 -4.7
    endloop
  endfacet
  facet normal 0 0 -1
    outer loop
      vertex -12.4718 1.83683 -4.7
      vertex -20 11.5 -4.7
      vertex -6 0 -4.7
    endloop
  endfacet
  facet normal 0 0 -1
    outer loop
      vertex -20 -13.5 -4.7
      vertex -18.125 0 -4.7
      vertex -17.5282 -1.83683 -4.7
    endloop
  endfacet
  facet normal 0 0 -1
    outer loop
      vertex -20 -13.5 -4.7
      vertex -17.5282 -1.83683 -4.7
      vertex -15.9657 -2.97205 -4.7
    endloop
  endfacet
  facet normal 0 0 -1
    outer loop
      vertex -20 -13.5 -4.7
      vertex -15.9657 -2.97205 -4.7
      vertex -14.0343 -2.97205 -4.7
    endloop
  endfacet
  facet normal 0 0 -1
    outer loop
      vertex -20 -13.5 -4.7
      vertex -14.0343 -2.97205 -4.7
      vertex -6 0 -4.7
    endloop
  endfacet
  facet normal 0 0 -1
    outer loop
      vertex -11.875 0 -4.7
      vertex -6 0 -4.7
      vertex -12.4718 -1.83683 -4.7
    endloop
  endfacet
  facet normal 0 0 -1
    outer loop
      vertex -14.0343 2.97205 -4.7
      vertex -20 11.5 -4.7
      vertex -12.4718 1.83683 -4.7
    endloop
  endfacet
  facet normal 0 0 -1
    outer loop
      vertex -11.875 0 -4.7
      vertex -12.4718 1.83683 -4.7
      vertex -6 0 -4.7
    endloop
  endfacet
  facet normal 0 0 -1
    outer loop
      vertex -15.9657 2.97205 -4.7
      vertex -20 11.5 -4.7
      vertex -14.0343 2.97205 -4.7
    endloop
  endfacet
  facet normal 0 0 -1
    outer loop
      vertex -17.5282 1.83683 -4.7
      vertex -20 11.5 -4.7
      vertex -15.9657 2.97205 -4.7
    endloop
  endfacet
  facet normal 0 0 -1
    outer loop
      vertex -18.125 0 -4.7
      vertex -20 11.5 -4.7
      vertex -17.5282 1.83683 -4.7
    endloop
  endfacet
  facet normal 0 0 -1
    outer loop
      vertex 22.4718 -1.83683 -4.7
      vertex 6 11.5 -4.7
      vertex 21.875 0 -4.7
    endloop
  endfacet
  facet normal 0 0 -1
    outer loop
      vertex 30 -13.5 -4.7
      vertex 6 11.5 -4.7
      vertex 22.4718 -1.83683 -4.7
    endloop
  endfacet
  facet normal 0 0 -1
    outer loop
      vertex 27.5282 1.83683 -4.7
      vertex 30 11.5 -4.7
      vertex 28.125 0 -4.7
    endloop
  endfacet
  facet normal 0 0 -1
    outer loop
      vertex 30 -13.5 -4.7
      vertex 24.0343 -2.97205 -4.7
      vertex 25.9657 -2.97205 -4.7
    endloop
  endfacet
  facet normal 0 0 -1
    outer loop
      vertex 30 -13.5 -4.7
      vertex 25.9657 -2.97205 -4.7
      vertex 27.5282 -1.83683 -4.7
    endloop
  endfacet
  facet normal 0 0 -1
    outer loop
      vertex 30 -13.5 -4.7
      vertex 27.5282 -1.83683 -4.7
      vertex 28.125 0 -4.7
    endloop
  endfacet
  facet normal 0 0 -1
    outer loop
      vertex 30 -13.5 -4.7
      vertex 28.125 0 -4.7
      vertex 30 11.5 -4.7
    endloop
  endfacet
  facet normal 0 0 -1
    outer loop
      vertex 25.9657 2.97205 -4.7
      vertex 30 11.5 -4.7
      vertex 27.5282 1.83683 -4.7
    endloop
  endfacet
  facet normal 0 0 -1
    outer loop
      vertex 22.4718 1.83683 -4.7
      vertex 30 11.5 -4.7
      vertex 24.0343 2.97205 -4.7
    endloop
  endfacet
  facet normal 0 0 -1
    outer loop
      vertex 25.9657 2.97205 -4.7
      vertex 24.0343 2.97205 -4.7
      vertex 30 11.5 -4.7
    endloop
  endfacet
  facet normal 0 0 -1
    outer loop
      vertex 21.875 0 -4.7
      vertex 6 11.5 -4.7
      vertex 22.4718 1.83683 -4.7
    endloop
  endfacet
  facet normal 0 0 -1
    outer loop
      vertex -6 0 -4.7
      vertex -20 11.5 -4.7
      vertex -6 11.5 -4.7
    endloop
  endfacet
  facet normal 0 0 -1
    outer loop
      vertex 5.86889 -1.24747 -4.7
      vertex 30 -13.5 -4.7
      vertex 5.48127 -2.44042 -4.7
    endloop
  endfacet
  facet normal 0 1 0
    outer loop
      vertex -20 11.5 -4.7
      vertex -20 11.5 4.7
      vertex -6 11.5 -4.7
    endloop
  endfacet
  facet normal 0 1 0
    outer loop
      vertex -8 11.5 -0.1
      vertex -20 11.5 4.7
      vertex -8 11.5 4.7
    endloop
  endfacet
  facet normal 0 1 0
    outer loop
      vertex -6 11.5 -4.7
      vertex -20 11.5 4.7
      vertex -8 11.5 -0.1
    endloop
  endfacet
  facet normal 0 1 0
    outer loop
      vertex -6 11.5 -0.1
      vertex -6 11.5 -4.7
      vertex -8 11.5 -0.1
    endloop
  endfacet
  facet normal 0 0 1
    outer loop
      vertex 2.47214 -7.60845 4.7
      vertex -20 -13.5 4.7
      vertex 30 -13.5 4.7
    endloop
  endfacet
  facet normal 0 0 1
    outer loop
      vertex 0.836228 -7.95617 4.7
      vertex -0.836228 -7.95617 4.7
      vertex -20 -13.5 4.7
    endloop
  endfacet
  facet normal 0 0 1
    outer loop
      vertex 23.1981 -0.867767 4.7
      vertex 8 11.5 4.7
      vertex 30 -13.5 4.7
    endloop
  endfacet
  facet normal 0 0 1
    outer loop
      vertex 8 11.5 4.7
      vertex 8 0 4.7
      vertex 30 -13.5 4.7
    endloop
  endfacet
  facet normal 0 0 1
    outer loop
      vertex 8 0 4.7
      vertex 7.82518 -1.66329 4.7
      vertex 30 -13.5 4.7
    endloop
  endfacet
  facet normal 0 0 1
    outer loop
      vertex -13.753 1.56366 4.7
      vertex -13 0 4.7
      vertex -6.47214 -4.70228 4.7
    endloop
  endfacet
  facet normal 0 0 1
    outer loop
      vertex 7.30836 -3.25389 4.7
      vertex 6.47214 -4.70228 4.7
      vertex 30 -13.5 4.7
    endloop
  endfacet
  facet normal 0 0 1
    outer loop
      vertex 6.47214 -4.70228 4.7
      vertex 5.35304 -5.94516 4.7
      vertex 30 -13.5 4.7
    endloop
  endfacet
  facet normal 0 0 1
    outer loop
      vertex -2.47214 -7.60845 4.7
      vertex -4 -6.9282 4.7
      vertex -20 -13.5 4.7
    endloop
  endfacet
  facet normal 0 0 1
    outer loop
      vertex 5.35304 -5.94516 4.7
      vertex 4 -6.9282 4.7
      vertex 30 -13.5 4.7
    endloop
  endfacet
  facet normal 0 0 1
    outer loop
      vertex 4 -6.9282 4.7
      vertex 2.47214 -7.60845 4.7
      vertex 30 -13.5 4.7
    endloop
  endfacet
  facet normal 0 0 1
    outer loop
      vertex 0.836228 -7.95617 4.7
      vertex -20 -13.5 4.7
      vertex 2.47214 -7.60845 4.7
    endloop
  endfacet
  facet normal 0 0 1
    outer loop
      vertex -6.47214 -4.70228 4.7
      vertex -7.30836 -3.25389 4.7
      vertex -20 11.5 4.7
    endloop
  endfacet
  facet normal 0 0 1
    outer loop
      vertex -5.35304 -5.94516 4.7
      vertex -20 -13.5 4.7
      vertex -4 -6.9282 4.7
    endloop
  endfacet
  facet normal 0 0 1
    outer loop
      vertex -6.47214 -4.70228 4.7
      vertex -20 -13.5 4.7
      vertex -5.35304 -5.94516 4.7
    endloop
  endfacet
  facet normal 0 0 1
    outer loop
      vertex -7.30836 -3.25389 4.7
      vertex -7.82518 -1.66329 4.7
      vertex -20 11.5 4.7
    endloop
  endfacet
  facet normal 0 0 1
    outer loop
      vertex -15.445 -1.94986 4.7
      vertex -20 -13.5 4.7
      vertex -6.47214 -4.70228 4.7
    endloop
  endfacet
  facet normal 0 0 1
    outer loop
      vertex -20 11.5 4.7
      vertex -7.82518 -1.66329 4.7
      vertex -8 0 4.7
    endloop
  endfacet
  facet normal 0 0 1
    outer loop
      vertex 24.555 1.94986 4.7
      vertex 26.247 1.56366 4.7
      vertex 30 11.5 4.7
    endloop
  endfacet
  facet normal 0 0 1
    outer loop
      vertex -20 11.5 4.7
      vertex -20 -13.5 4.7
      vertex -16.8019 -0.867767 4.7
    endloop
  endfacet
  facet normal 0 0 1
    outer loop
      vertex -13.753 -1.56366 4.7
      vertex -15.445 -1.94986 4.7
      vertex -6.47214 -4.70228 4.7
    endloop
  endfacet
  facet normal 0 0 1
    outer loop
      vertex -20 11.5 4.7
      vertex -16.8019 -0.867767 4.7
      vertex -16.8019 0.867767 4.7
    endloop
  endfacet
  facet normal 0 0 1
    outer loop
      vertex -13 0 4.7
      vertex -13.753 -1.56366 4.7
      vertex -6.47214 -4.70228 4.7
    endloop
  endfacet
  facet normal 0 0 1
    outer loop
      vertex -20 11.5 4.7
      vertex -16.8019 0.867767 4.7
      vertex -15.445 1.94986 4.7
    endloop
  endfacet
  facet normal 0 0 1
    outer loop
      vertex -20 11.5 4.7
      vertex -13.753 1.56366 4.7
      vertex -6.47214 -4.70228 4.7
    endloop
  endfacet
  facet normal 0 0 1
    outer loop
      vertex -20 11.5 4.7
      vertex -15.445 1.94986 4.7
      vertex -13.753 1.56366 4.7
    endloop
  endfacet
  facet normal 0 0 1
    outer loop
      vertex -16.8019 -0.867767 4.7
      vertex -20 -13.5 4.7
      vertex -15.445 -1.94986 4.7
    endloop
  endfacet
  facet normal 0 0 1
    outer loop
      vertex 24.555 -1.94986 4.7
      vertex 23.1981 -0.867767 4.7
      vertex 30 -13.5 4.7
    endloop
  endfacet
  facet normal 0 0 1
    outer loop
      vertex 23.1981 0.867767 4.7
      vertex 8 11.5 4.7
      vertex 23.1981 -0.867767 4.7
    endloop
  endfacet
  facet normal 0 0 1
    outer loop
      vertex 30 11.5 4.7
      vertex 8 11.5 4.7
      vertex 23.1981 0.867767 4.7
    endloop
  endfacet
  facet normal 0 0 1
    outer loop
      vertex 27 0 4.7
      vertex 26.247 -1.56366 4.7
      vertex 30 -13.5 4.7
    endloop
  endfacet
  facet normal 0 0 1
    outer loop
      vertex 30 11.5 4.7
      vertex 23.1981 0.867767 4.7
      vertex 24.555 1.94986 4.7
    endloop
  endfacet
  facet normal 0 0 1
    outer loop
      vertex 30 11.5 4.7
      vertex 27 0 4.7
      vertex 30 -13.5 4.7
    endloop
  endfacet
  facet normal 0 0 1
    outer loop
      vertex 30 11.5 4.7
      vertex 26.247 1.56366 4.7
      vertex 27 0 4.7
    endloop
  endfacet
  facet normal 0 0 1
    outer loop
      vertex 26.247 -1.56366 4.7
      vertex 24.555 -1.94986 4.7
      vertex 30 -13.5 4.7
    endloop
  endfacet
  facet normal 0 0 1
    outer loop
      vertex 7.82518 -1.66329 4.7
      vertex 7.30836 -3.25389 4.7
      vertex 30 -13.5 4.7
    endloop
  endfacet
  facet normal 0 0 1
    outer loop
      vertex -0.836228 -7.95617 4.7
      vertex -2.47214 -7.60845 4.7
      vertex -20 -13.5 4.7
    endloop
  endfacet
  facet normal 0 0 1
    outer loop
      vertex -8 0 4.7
      vertex -8 11.5 4.7
      vertex -20 11.5 4.7
    endloop
  endfacet
  facet normal 1 0 0
    outer loop
      vertex 30 -13.5 4.7
      vertex 30 -13.5 -4.7
      vertex 30 11.5 -4.7
    endloop
  endfacet
  facet normal 1 0 0
    outer loop
      vertex 30 11.5 4.7
      vertex 30 -13.5 4.7
      vertex 30 11.5 -4.7
    endloop
  endfacet
  facet normal 0 1 0
    outer loop
      vertex 6 11.5 -4.7
      vertex 6 11.5 -0.1
      vertex 30 11.5 -4.7
    endloop
  endfacet
  facet normal 0 1 0
    outer loop
      vertex 30 11.5 -4.7
      vertex 6 11.5 -0.1
      vertex 8 11.5 -0.1
    endloop
  endfacet
  facet normal 0 1 0
    outer loop
      vertex 30 11.5 -4.7
      vertex 8 11.5 -0.1
      vertex 8 11.5 4.7
    endloop
  endfacet
  facet normal 0 1 0
    outer loop
      vertex 30 11.5 -4.7
      vertex 8 11.5 4.7
      vertex 30 11.5 4.7
    endloop
  endfacet
  facet normal -1 0 0
    outer loop
      vertex 6 11.5 -0.1
      vertex 6 11.5 -4.7
      vertex 6 0 -0.1
    endloop
  endfacet
  facet normal -1 0 0
    outer loop
      vertex 6 0 -0.1
      vertex 6 11.5 -4.7
      vertex 6 0 -4.7
    endloop
  endfacet
  facet normal -0.994522 0.104528 0
    outer loop
      vertex 6 0 -0.1
      vertex 6 0 -4.7
      vertex 5.86889 -1.24747 -0.1
    endloop
  endfacet
  facet normal -0.994522 0.104528 0
    outer loop
      vertex 5.86889 -1.24747 -0.1
      vertex 6 0 -4.7
      vertex 5.86889 -1.24747 -4.7
    endloop
  endfacet
  facet normal -0.951057 0.309017 0
    outer loop
      vertex 5.86889 -1.24747 -0.1
      vertex 5.86889 -1.24747 -4.7
      vertex 5.48127 -2.44042 -0.1
    endloop
  endfacet
  facet normal -0.951057 0.309017 0
    outer loop
      vertex 5.48127 -2.44042 -0.1
      vertex 5.86889 -1.24747 -4.7
      vertex 5.48127 -2.44042 -4.7
    endloop
  endfacet
  facet normal -0.866025 0.5 0
    outer loop
      vertex 5.48127 -2.44042 -0.1
      vertex 5.48127 -2.44042 -4.7
      vertex 4.8541 -3.52671 -0.1
    endloop
  endfacet
  facet normal -0.866025 0.5 0
    outer loop
      vertex 4.8541 -3.52671 -0.1
      vertex 5.48127 -2.44042 -4.7
      vertex 4.8541 -3.52671 -4.7
    endloop
  endfacet
  facet normal -0.743145 0.669131 0
    outer loop
      vertex 4.8541 -3.52671 -0.1
      vertex 4.8541 -3.52671 -4.7
      vertex 4.01478 -4.45887 -0.1
    endloop
  endfacet
  facet normal -0.743145 0.669131 0
    outer loop
      vertex 4.01478 -4.45887 -0.1
      vertex 4.8541 -3.52671 -4.7
      vertex 4.01478 -4.45887 -4.7
    endloop
  endfacet
  facet normal -0.587785 0.809017 0
    outer loop
      vertex 4.01478 -4.45887 -0.1
      vertex 4.01478 -4.45887 -4.7
      vertex 3 -5.19615 -0.1
    endloop
  endfacet
  facet normal -0.587785 0.809017 0
    outer loop
      vertex 3 -5.19615 -0.1
      vertex 4.01478 -4.45887 -4.7
      vertex 3 -5.19615 -4.7
    endloop
  endfacet
  facet normal -0.406737 0.913545 0
    outer loop
      vertex 3 -5.19615 -0.1
      vertex 3 -5.19615 -4.7
      vertex 1.8541 -5.70634 -0.1
    endloop
  endfacet
  facet normal -0.406737 0.913545 0
    outer loop
      vertex 1.8541 -5.70634 -0.1
      vertex 3 -5.19615 -4.7
      vertex 1.8541 -5.70634 -4.7
    endloop
  endfacet
  facet normal -0.207912 0.978148 0
    outer loop
      vertex 1.8541 -5.70634 -0.1
      vertex 1.8541 -5.70634 -4.7
      vertex 0.627171 -5.96713 -0.1
    endloop
  endfacet
  facet normal -0.207912 0.978148 0
    outer loop
      vertex 0.627171 -5.96713 -0.1
      vertex 1.8541 -5.70634 -4.7
      vertex 0.627171 -5.96713 -4.7
    endloop
  endfacet
  facet normal 0 1 0
    outer loop
      vertex 0.627171 -5.96713 -0.1
      vertex 0.627171 -5.96713 -4.7
      vertex -0.627171 -5.96713 -0.1
    endloop
  endfacet
  facet normal 0 1 0
    outer loop
      vertex -0.627171 -5.96713 -0.1
      vertex 0.627171 -5.96713 -4.7
      vertex -0.627171 -5.96713 -4.7
    endloop
  endfacet
  facet normal 0.207912 0.978148 0
    outer loop
      vertex -0.627171 -5.96713 -0.1
      vertex -0.627171 -5.96713 -4.7
      vertex -1.8541 -5.70634 -0.1
    endloop
  endfacet
  facet normal 0.207912 0.978148 0
    outer loop
      vertex -1.8541 -5.70634 -0.1
      vertex -0.627171 -5.96713 -4.7
      vertex -1.8541 -5.70634 -4.7
    endloop
  endfacet
  facet normal 0.406737 0.913545 0
    outer loop
      vertex -1.8541 -5.70634 -0.1
      vertex -1.8541 -5.70634 -4.7
      vertex -3 -5.19615 -0.1
    endloop
  endfacet
  facet normal 0.406737 0.913545 0
    outer loop
      vertex -3 -5.19615 -0.1
      vertex -1.8541 -5.70634 -4.7
      vertex -3 -5.19615 -4.7
    endloop
  endfacet
  facet normal 0.587785 0.809017 0
    outer loop
      vertex -3 -5.19615 -0.1
      vertex -3 -5.19615 -4.7
      vertex -4.01478 -4.45887 -0.1
    endloop
  endfacet
  facet normal 0.587785 0.809017 0
    outer loop
      vertex -4.01478 -4.45887 -0.1
      vertex -3 -5.19615 -4.7
      vertex -4.01478 -4.45887 -4.7
    endloop
  endfacet
  facet normal 0.743145 0.669131 0
    outer loop
      vertex -4.8541 -3.52671 -0.1
      vertex -4.01478 -4.45887 -0.1
      vertex -4.01478 -4.45887 -4.7
    endloop
  endfacet
  facet normal 0.743145 0.669131 0
    outer loop
      vertex -4.8541 -3.52671 -4.7
      vertex -4.8541 -3.52671 -0.1
      vertex -4.01478 -4.45887 -4.7
    endloop
  endfacet
  facet normal 0.866025 0.5 0
    outer loop
      vertex -5.48127 -2.44042 -0.1
      vertex -4.8541 -3.52671 -0.1
      vertex -4.8541 -3.52671 -4.7
    endloop
  endfacet
  facet normal 0.866025 0.5 0
    outer loop
      vertex -5.48127 -2.44042 -4.7
      vertex -5.48127 -2.44042 -0.1
      vertex -4.8541 -3.52671 -4.7
    endloop
  endfacet
  facet normal 0.951057 0.309017 0
    outer loop
      vertex -5.86889 -1.24747 -0.1
      vertex -5.48127 -2.44042 -0.1
      vertex -5.48127 -2.44042 -4.7
    endloop
  endfacet
  facet normal 0.951057 0.309017 0
    outer loop
      vertex -5.86889 -1.24747 -4.7
      vertex -5.86889 -1.24747 -0.1
      vertex -5.48127 -2.44042 -4.7
    endloop
  endfacet
  facet normal 0.994522 0.104528 0
    outer loop
      vertex -6 0 -0.1
      vertex -5.86889 -1.24747 -0.1
      vertex -5.86889 -1.24747 -4.7
    endloop
  endfacet
  facet normal 0.994522 0.104528 0
    outer loop
      vertex -6 0 -4.7
      vertex -6 0 -0.1
      vertex -5.86889 -1.24747 -4.7
    endloop
  endfacet
  facet normal 1 0 0
    outer loop
      vertex -6 11.5 -4.7
      vertex -6 11.5 -0.1
      vertex -6 0 -0.1
    endloop
  endfacet
  facet normal 1 0 0
    outer loop
      vertex -6 0 -4.7
      vertex -6 11.5 -4.7
      vertex -6 0 -0.1
    endloop
  endfacet
  facet normal 0.951057 0.309017 0
    outer loop
      vertex -18.125 0 -1.6
      vertex -17.5282 -1.83683 -1.6
      vertex -17.5282 -1.83683 -4.7
    endloop
  endfacet
  facet normal 0.951057 0.309017 0
    outer loop
      vertex -18.125 0 -4.7
      vertex -18.125 0 -1.6
      vertex -17.5282 -1.83683 -4.7
    endloop
  endfacet
  facet normal 0.951057 -0.309017 0
    outer loop
      vertex -17.5282 1.83683 -4.7
      vertex -17.5282 1.83683 -1.6
      vertex -18.125 0 -1.6
    endloop
  endfacet
  facet normal 0.951057 -0.309017 0
    outer loop
      vertex -18.125 0 -4.7
      vertex -17.5282 1.83683 -4.7
      vertex -18.125 0 -1.6
    endloop
  endfacet
  facet normal 0.587785 -0.809017 0
    outer loop
      vertex -15.9657 2.97205 -4.7
      vertex -15.9657 2.97205 -1.6
      vertex -17.5282 1.83683 -1.6
    endloop
  endfacet
  facet normal 0.587785 -0.809017 0
    outer loop
      vertex -17.5282 1.83683 -4.7
      vertex -15.9657 2.97205 -4.7
      vertex -17.5282 1.83683 -1.6
    endloop
  endfacet
  facet normal 0 -1 0
    outer loop
      vertex -14.0343 2.97205 -4.7
      vertex -14.0343 2.97205 -1.6
      vertex -15.9657 2.97205 -1.6
    endloop
  endfacet
  facet normal 0 -1 0
    outer loop
      vertex -15.9657 2.97205 -4.7
      vertex -14.0343 2.97205 -4.7
      vertex -15.9657 2.97205 -1.6
    endloop
  endfacet
  facet normal -0.587785 -0.809017 0
    outer loop
      vertex -12.4718 1.83683 -4.7
      vertex -12.4718 1.83683 -1.6
      vertex -14.0343 2.97205 -1.6
    endloop
  endfacet
  facet normal -0.587785 -0.809017 0
    outer loop
      vertex -14.0343 2.97205 -4.7
      vertex -12.4718 1.83683 -4.7
      vertex -14.0343 2.97205 -1.6
    endloop
  endfacet
  facet normal -0.951057 -0.309017 0
    outer loop
      vertex -11.875 0 -1.6
      vertex -12.4718 1.83683 -1.6
      vertex -11.875 0 -4.7
    endloop
  endfacet
  facet normal -0.951057 -0.309017 0
    outer loop
      vertex -11.875 0 -4.7
      vertex -12.4718 1.83683 -1.6
      vertex -12.4718 1.83683 -4.7
    endloop
  endfacet
  facet normal -0.951057 0.309017 0
    outer loop
      vertex -11.875 0 -1.6
      vertex -11.875 0 -4.7
      vertex -12.4718 -1.83683 -1.6
    endloop
  endfacet
  facet normal -0.951057 0.309017 0
    outer loop
      vertex -12.4718 -1.83683 -1.6
      vertex -11.875 0 -4.7
      vertex -12.4718 -1.83683 -4.7
    endloop
  endfacet
  facet normal -0.587785 0.809017 0
    outer loop
      vertex -12.4718 -1.83683 -1.6
      vertex -12.4718 -1.83683 -4.7
      vertex -14.0343 -2.97205 -1.6
    endloop
  endfacet
  facet normal -0.587785 0.809017 0
    outer loop
      vertex -14.0343 -2.97205 -1.6
      vertex -12.4718 -1.83683 -4.7
      vertex -14.0343 -2.97205 -4.7
    endloop
  endfacet
  facet normal 0 1 0
    outer loop
      vertex -14.0343 -2.97205 -1.6
      vertex -14.0343 -2.97205 -4.7
      vertex -15.9657 -2.97205 -1.6
    endloop
  endfacet
  facet normal 0 1 0
    outer loop
      vertex -15.9657 -2.97205 -1.6
      vertex -14.0343 -2.97205 -4.7
      vertex -15.9657 -2.97205 -4.7
    endloop
  endfacet
  facet normal 0.587785 0.809017 0
    outer loop
      vertex -15.9657 -2.97205 -1.6
      vertex -15.9657 -2.97205 -4.7
      vertex -17.5282 -1.83683 -1.6
    endloop
  endfacet
  facet normal 0.587785 0.809017 0
    outer loop
      vertex -17.5282 -1.83683 -1.6
      vertex -15.9657 -2.97205 -4.7
      vertex -17.5282 -1.83683 -4.7
    endloop
  endfacet
  facet normal 0.951057 0.309017 0
    outer loop
      vertex 21.875 0 -1.6
      vertex 22.4718 -1.83683 -1.6
      vertex 22.4718 -1.83683 -4.7
    endloop
  endfacet
  facet normal 0.951057 0.309017 0
    outer loop
      vertex 21.875 0 -4.7
      vertex 21.875 0 -1.6
      vertex 22.4718 -1.83683 -4.7
    endloop
  endfacet
  facet normal 0.951057 -0.309017 0
    outer loop
      vertex 22.4718 1.83683 -4.7
      vertex 22.4718 1.83683 -1.6
      vertex 21.875 0 -1.6
    endloop
  endfacet
  facet normal 0.951057 -0.309017 0
    outer loop
      vertex 21.875 0 -4.7
      vertex 22.4718 1.83683 -4.7
      vertex 21.875 0 -1.6
    endloop
  endfacet
  facet normal 0.587785 -0.809017 0
    outer loop
      vertex 24.0343 2.97205 -4.7
      vertex 24.0343 2.97205 -1.6
      vertex 22.4718 1.83683 -1.6
    endloop
  endfacet
  facet normal 0.587785 -0.809017 0
    outer loop
      vertex 22.4718 1.83683 -4.7
      vertex 24.0343 2.97205 -4.7
      vertex 22.4718 1.83683 -1.6
    endloop
  endfacet
  facet normal 0 -1 0
    outer loop
      vertex 25.9657 2.97205 -4.7
      vertex 25.9657 2.97205 -1.6
      vertex 24.0343 2.97205 -1.6
    endloop
  endfacet
  facet normal 0 -1 0
    outer loop
      vertex 24.0343 2.97205 -4.7
      vertex 25.9657 2.97205 -4.7
      vertex 24.0343 2.97205 -1.6
    endloop
  endfacet
  facet normal -0.587785 -0.809017 0
    outer loop
      vertex 27.5282 1.83683 -4.7
      vertex 27.5282 1.83683 -1.6
      vertex 25.9657 2.97205 -1.6
    endloop
  endfacet
  facet normal -0.587785 -0.809017 0
    outer loop
      vertex 25.9657 2.97205 -4.7
      vertex 27.5282 1.83683 -4.7
      vertex 25.9657 2.97205 -1.6
    endloop
  endfacet
  facet normal -0.951057 -0.309017 0
    outer loop
      vertex 28.125 0 -1.6
      vertex 27.5282 1.83683 -1.6
      vertex 28.125 0 -4.7
    endloop
  endfacet
  facet normal -0.951057 -0.309017 0
    outer loop
      vertex 28.125 0 -4.7
      vertex 27.5282 1.83683 -1.6
      vertex 27.5282 1.83683 -4.7
    endloop
  endfacet
  facet normal -0.951057 0.309017 0
    outer loop
      vertex 28.125 0 -1.6
      vertex 28.125 0 -4.7
      vertex 27.5282 -1.83683 -1.6
    endloop
  endfacet
  facet normal -0.951057 0.309017 0
    outer loop
      vertex 27.5282 -1.83683 -1.6
      vertex 28.125 0 -4.7
      vertex 27.5282 -1.83683 -4.7
    endloop
  endfacet
  facet normal -0.587785 0.809017 0
    outer loop
      vertex 27.5282 -1.83683 -1.6
      vertex 27.5282 -1.83683 -4.7
      vertex 25.9657 -2.97205 -1.6
    endloop
  endfacet
  facet normal -0.587785 0.809017 0
    outer loop
      vertex 25.9657 -2.97205 -1.6
      vertex 27.5282 -1.83683 -4.7
      vertex 25.9657 -2.97205 -4.7
    endloop
  endfacet
  facet normal 0 1 0
    outer loop
      vertex 25.9657 -2.97205 -1.6
      vertex 25.9657 -2.97205 -4.7
      vertex 24.0343 -2.97205 -1.6
    endloop
  endfacet
  facet normal 0 1 0
    outer loop
      vertex 24.0343 -2.97205 -1.6
      vertex 25.9657 -2.97205 -4.7
      vertex 24.0343 -2.97205 -4.7
    endloop
  endfacet
  facet normal 0.587785 0.809017 0
    outer loop
      vertex 24.0343 -2.97205 -1.6
      vertex 24.0343 -2.97205 -4.7
      vertex 22.4718 -1.83683 -1.6
    endloop
  endfacet
  facet normal 0.587785 0.809017 0
    outer loop
      vertex 22.4718 -1.83683 -1.6
      vertex 24.0343 -2.97205 -4.7
      vertex 22.4718 -1.83683 -4.7
    endloop
  endfacet
  facet normal 0 0 1
    outer loop
      vertex -7.82518 -1.66329 -0.1
      vertex -7.30836 -3.25389 -0.1
      vertex -6.47214 -4.70228 -0.1
    endloop
  endfacet
  facet normal 0 0 1
    outer loop
      vertex -4 -6.9282 -0.1
      vertex -7.82518 -1.66329 -0.1
      vertex -5.35304 -5.94516 -0.1
    endloop
  endfacet
  facet normal 0 0 1
    outer loop
      vertex -5.35304 -5.94516 -0.1
      vertex -7.82518 -1.66329 -0.1
      vertex -6.47214 -4.70228 -0.1
    endloop
  endfacet
  facet normal 0 0 1
    outer loop
      vertex -2.47214 -7.60845 -0.1
      vertex -7.82518 -1.66329 -0.1
      vertex -4 -6.9282 -0.1
    endloop
  endfacet
  facet normal 0 0 1
    outer loop
      vertex -0.836228 -7.95617 -0.1
      vertex -7.82518 -1.66329 -0.1
      vertex -2.47214 -7.60845 -0.1
    endloop
  endfacet
  facet normal 0 0 1
    outer loop
      vertex -4.01478 -4.45887 -0.1
      vertex -7.82518 -1.66329 -0.1
      vertex -0.836228 -7.95617 -0.1
    endloop
  endfacet
  facet normal 0 0 1
    outer loop
      vertex -1.8541 -5.70634 -0.1
      vertex -3 -5.19615 -0.1
      vertex 0.836228 -7.95617 -0.1
    endloop
  endfacet
  facet normal 0 0 1
    outer loop
      vertex 0.627171 -5.96713 -0.1
      vertex -0.627171 -5.96713 -0.1
      vertex 2.47214 -7.60845 -0.1
    endloop
  endfacet
  facet normal 0 0 1
    outer loop
      vertex 1.8541 -5.70634 -0.1
      vertex 0.627171 -5.96713 -0.1
      vertex 4 -6.9282 -0.1
    endloop
  endfacet
  facet normal 0 0 1
    outer loop
      vertex 4.01478 -4.45887 -0.1
      vertex 3 -5.19615 -0.1
      vertex 5.35304 -5.94516 -0.1
    endloop
  endfacet
  facet normal 0 0 1
    outer loop
      vertex 4.8541 -3.52671 -0.1
      vertex 4.01478 -4.45887 -0.1
      vertex 6.47214 -4.70228 -0.1
    endloop
  endfacet
  facet normal 0 0 1
    outer loop
      vertex 5.48127 -2.44042 -0.1
      vertex 4.8541 -3.52671 -0.1
      vertex 7.30836 -3.25389 -0.1
    endloop
  endfacet
  facet normal 0 0 1
    outer loop
      vertex 5.86889 -1.24747 -0.1
      vertex 5.48127 -2.44042 -0.1
      vertex 7.82518 -1.66329 -0.1
    endloop
  endfacet
  facet normal 0 0 1
    outer loop
      vertex -4.01478 -4.45887 -0.1
      vertex -4.8541 -3.52671 -0.1
      vertex -7.82518 -1.66329 -0.1
    endloop
  endfacet
  facet normal 0 0 1
    outer loop
      vertex 8 11.5 -0.1
      vertex 6 0 -0.1
      vertex 8 0 -0.1
    endloop
  endfacet
  facet normal 0 0 1
    outer loop
      vertex 8 0 -0.1
      vertex 5.86889 -1.24747 -0.1
      vertex 7.82518 -1.66329 -0.1
    endloop
  endfacet
  facet normal 0 0 1
    outer loop
      vertex 7.82518 -1.66329 -0.1
      vertex 5.48127 -2.44042 -0.1
      vertex 7.30836 -3.25389 -0.1
    endloop
  endfacet
  facet normal 0 0 1
    outer loop
      vertex 7.30836 -3.25389 -0.1
      vertex 4.8541 -3.52671 -0.1
      vertex 6.47214 -4.70228 -0.1
    endloop
  endfacet
  facet normal 0 0 1
    outer loop
      vertex 6.47214 -4.70228 -0.1
      vertex 4.01478 -4.45887 -0.1
      vertex 5.35304 -5.94516 -0.1
    endloop
  endfacet
  facet normal 0 0 1
    outer loop
      vertex 5.35304 -5.94516 -0.1
      vertex 3 -5.19615 -0.1
      vertex 4 -6.9282 -0.1
    endloop
  endfacet
  facet normal 0 0 1
    outer loop
      vertex 3 -5.19615 -0.1
      vertex 1.8541 -5.70634 -0.1
      vertex 4 -6.9282 -0.1
    endloop
  endfacet
  facet normal 0 0 1
    outer loop
      vertex 4 -6.9282 -0.1
      vertex 0.627171 -5.96713 -0.1
      vertex 2.47214 -7.60845 -0.1
    endloop
  endfacet
  facet normal 0 0 1
    outer loop
      vertex 2.47214 -7.60845 -0.1
      vertex -0.627171 -5.96713 -0.1
      vertex 0.836228 -7.95617 -0.1
    endloop
  endfacet
  facet normal 0 0 1
    outer loop
      vertex -0.627171 -5.96713 -0.1
      vertex -1.8541 -5.70634 -0.1
      vertex 0.836228 -7.95617 -0.1
    endloop
  endfacet
  facet normal 0 0 1
    outer loop
      vertex 0.836228 -7.95617 -0.1
      vertex -3 -5.19615 -0.1
      vertex -0.836228 -7.95617 -0.1
    endloop
  endfacet
  facet normal 0 0 1
    outer loop
      vertex -3 -5.19615 -0.1
      vertex -4.01478 -4.45887 -0.1
      vertex -0.836228 -7.95617 -0.1
    endloop
  endfacet
  facet normal 0 0 1
    outer loop
      vertex -6 0 -0.1
      vertex -6 11.5 -0.1
      vertex -7.82518 -1.66329 -0.1
    endloop
  endfacet
  facet normal 0 0 1
    outer loop
      vertex 6 0 -0.1
      vertex 5.86889 -1.24747 -0.1
      vertex 8 0 -0.1
    endloop
  endfacet
  facet normal 0 0 1
    outer loop
      vertex -4.8541 -3.52671 -0.1
      vertex -5.48127 -2.44042 -0.1
      vertex -7.82518 -1.66329 -0.1
    endloop
  endfacet
  facet normal 0 0 1
    outer loop
      vertex -8 11.5 -0.1
      vertex -7.82518 -1.66329 -0.1
      vertex -6 11.5 -0.1
    endloop
  endfacet
  facet normal 0 0 1
    outer loop
      vertex -8 0 -0.1
      vertex -7.82518 -1.66329 -0.1
      vertex -8 11.5 -0.1
    endloop
  endfacet
  facet normal 0 0 1
    outer loop
      vertex -5.86889 -1.24747 -0.1
      vertex -6 0 -0.1
      vertex -7.82518 -1.66329 -0.1
    endloop
  endfacet
  facet normal 0 0 1
    outer loop
      vertex 6 11.5 -0.1
      vertex 6 0 -0.1
      vertex 8 11.5 -0.1
    endloop
  endfacet
  facet normal 0 0 1
    outer loop
      vertex -5.48127 -2.44042 -0.1
      vertex -5.86889 -1.24747 -0.1
      vertex -7.82518 -1.66329 -0.1
    endloop
  endfacet
  facet normal 1 0 0
    outer loop
      vertex -8 11.5 -0.1
      vertex -8 11.5 4.7
      vertex -8 0 4.7
    endloop
  endfacet
  facet normal 1 0 0
    outer loop
      vertex -8 0 -0.1
      vertex -8 11.5 -0.1
      vertex -8 0 4.7
    endloop
  endfacet
  facet normal 0.994522 0.104528 0
    outer loop
      vertex -8 0 4.7
      vertex -7.82518 -1.66329 4.7
      vertex -7.82518 -1.66329 -0.1
    endloop
  endfacet
  facet normal 0.994522 0.104528 0
    outer loop
      vertex -8 0 -0.1
      vertex -8 0 4.7
      vertex -7.82518 -1.66329 -0.1
    endloop
  endfacet
  facet normal 0.951057 0.309017 0
    outer loop
      vertex -7.82518 -1.66329 4.7
      vertex -7.30836 -3.25389 4.7
      vertex -7.30836 -3.25389 -0.1
    endloop
  endfacet
  facet normal 0.951057 0.309017 0
    outer loop
      vertex -7.82518 -1.66329 -0.1
      vertex -7.82518 -1.66329 4.7
      vertex -7.30836 -3.25389 -0.1
    endloop
  endfacet
  facet normal 0.866025 0.5 0
    outer loop
      vertex -7.30836 -3.25389 4.7
      vertex -6.47214 -4.70228 4.7
      vertex -6.47214 -4.70228 -0.1
    endloop
  endfacet
  facet normal 0.866025 0.5 0
    outer loop
      vertex -7.30836 -3.25389 -0.1
      vertex -7.30836 -3.25389 4.7
      vertex -6.47214 -4.70228 -0.1
    endloop
  endfacet
  facet normal 0.743145 0.66913 0
    outer loop
      vertex -6.47214 -4.70228 4.7
      vertex -5.35304 -5.94516 4.7
      vertex -5.35304 -5.94516 -0.1
    endloop
  endfacet
  facet normal 0.743145 0.66913 0
    outer loop
      vertex -6.47214 -4.70228 -0.1
      vertex -6.47214 -4.70228 4.7
      vertex -5.35304 -5.94516 -0.1
    endloop
  endfacet
  facet normal 0.587785 0.809017 0
    outer loop
      vertex -4 -6.9282 4.7
      vertex -4 -6.9282 -0.1
      vertex -5.35304 -5.94516 4.7
    endloop
  endfacet
  facet normal 0.587785 0.809017 0
    outer loop
      vertex -5.35304 -5.94516 4.7
      vertex -4 -6.9282 -0.1
      vertex -5.35304 -5.94516 -0.1
    endloop
  endfacet
  facet normal 0.406737 0.913545 0
    outer loop
      vertex -2.47214 -7.60845 4.7
      vertex -2.47214 -7.60845 -0.1
      vertex -4 -6.9282 4.7
    endloop
  endfacet
  facet normal 0.406737 0.913545 0
    outer loop
      vertex -4 -6.9282 4.7
      vertex -2.47214 -7.60845 -0.1
      vertex -4 -6.9282 -0.1
    endloop
  endfacet
  facet normal 0.207912 0.978148 0
    outer loop
      vertex -0.836228 -7.95617 4.7
      vertex -0.836228 -7.95617 -0.1
      vertex -2.47214 -7.60845 4.7
    endloop
  endfacet
  facet normal 0.207912 0.978148 0
    outer loop
      vertex -2.47214 -7.60845 4.7
      vertex -0.836228 -7.95617 -0.1
      vertex -2.47214 -7.60845 -0.1
    endloop
  endfacet
  facet normal 0 1 0
    outer loop
      vertex 0.836228 -7.95617 4.7
      vertex 0.836228 -7.95617 -0.1
      vertex -0.836228 -7.95617 4.7
    endloop
  endfacet
  facet normal 0 1 0
    outer loop
      vertex -0.836228 -7.95617 4.7
      vertex 0.836228 -7.95617 -0.1
      vertex -0.836228 -7.95617 -0.1
    endloop
  endfacet
  facet normal -0.207912 0.978148 0
    outer loop
      vertex 2.47214 -7.60845 4.7
      vertex 2.47214 -7.60845 -0.1
      vertex 0.836228 -7.95617 4.7
    endloop
  endfacet
  facet normal -0.207912 0.978148 0
    outer loop
      vertex 0.836228 -7.95617 4.7
      vertex 2.47214 -7.60845 -0.1
      vertex 0.836228 -7.95617 -0.1
    endloop
  endfacet
  facet normal -0.406737 0.913545 0
    outer loop
      vertex 4 -6.9282 4.7
      vertex 4 -6.9282 -0.1
      vertex 2.47214 -7.60845 4.7
    endloop
  endfacet
  facet normal -0.406737 0.913545 0
    outer loop
      vertex 2.47214 -7.60845 4.7
      vertex 4 -6.9282 -0.1
      vertex 2.47214 -7.60845 -0.1
    endloop
  endfacet
  facet normal -0.587785 0.809017 0
    outer loop
      vertex 5.35304 -5.94516 4.7
      vertex 5.35304 -5.94516 -0.1
      vertex 4 -6.9282 4.7
    endloop
  endfacet
  facet normal -0.587785 0.809017 0
    outer loop
      vertex 4 -6.9282 4.7
      vertex 5.35304 -5.94516 -0.1
      vertex 4 -6.9282 -0.1
    endloop
  endfacet
  facet normal -0.743145 0.66913 0
    outer loop
      vertex 6.47214 -4.70228 4.7
      vertex 6.47214 -4.70228 -0.1
      vertex 5.35304 -5.94516 4.7
    endloop
  endfacet
  facet normal -0.743145 0.66913 0
    outer loop
      vertex 5.35304 -5.94516 4.7
      vertex 6.47214 -4.70228 -0.1
      vertex 5.35304 -5.94516 -0.1
    endloop
  endfacet
  facet normal -0.866025 0.5 0
    outer loop
      vertex 7.30836 -3.25389 4.7
      vertex 7.30836 -3.25389 -0.1
      vertex 6.47214 -4.70228 4.7
    endloop
  endfacet
  facet normal -0.866025 0.5 0
    outer loop
      vertex 6.47214 -4.70228 4.7
      vertex 7.30836 -3.25389 -0.1
      vertex 6.47214 -4.70228 -0.1
    endloop
  endfacet
  facet normal -0.951057 0.309017 0
    outer loop
      vertex 7.82518 -1.66329 4.7
      vertex 7.82518 -1.66329 -0.1
      vertex 7.30836 -3.25389 4.7
    endloop
  endfacet
  facet normal -0.951057 0.309017 0
    outer loop
      vertex 7.30836 -3.25389 4.7
      vertex 7.82518 -1.66329 -0.1
      vertex 7.30836 -3.25389 -0.1
    endloop
  endfacet
  facet normal -0.994522 0.104528 0
    outer loop
      vertex 8 0 4.7
      vertex 8 0 -0.1
      vertex 7.82518 -1.66329 4.7
    endloop
  endfacet
  facet normal -0.994522 0.104528 0
    outer loop
      vertex 7.82518 -1.66329 4.7
      vertex 8 0 -0.1
      vertex 7.82518 -1.66329 -0.1
    endloop
  endfacet
  facet normal -1 0 0
    outer loop
      vertex 8 11.5 4.7
      vertex 8 11.5 -0.1
      vertex 8 0 4.7
    endloop
  endfacet
  facet normal -1 0 0
    outer loop
      vertex 8 0 4.7
      vertex 8 11.5 -0.1
      vertex 8 0 -0.1
    endloop
  endfacet
  facet normal 0.62349 0.781831 0
    outer loop
      vertex -15.445 -1.94986 4.7
      vertex -15.445 -1.94986 -1.6
      vertex -16.8019 -0.867767 4.7
    endloop
  endfacet
  facet normal 0.62349 0.781831 0
    outer loop
      vertex -16.8019 -0.867767 4.7
      vertex -15.445 -1.94986 -1.6
      vertex -16.8019 -0.867767 -1.6
    endloop
  endfacet
  facet normal 1 0 0
    outer loop
      vertex -16.8019 0.867767 -1.6
      vertex -16.8019 0.867767 4.7
      vertex -16.8019 -0.867767 4.7
    endloop
  endfacet
  facet normal 1 0 0
    outer loop
      vertex -16.8019 -0.867767 -1.6
      vertex -16.8019 0.867767 -1.6
      vertex -16.8019 -0.867767 4.7
    endloop
  endfacet
  facet normal -0.222521 0.974928 0
    outer loop
      vertex -13.753 -1.56366 4.7
      vertex -13.753 -1.56366 -1.6
      vertex -15.445 -1.94986 4.7
    endloop
  endfacet
  facet normal -0.222521 0.974928 0
    outer loop
      vertex -15.445 -1.94986 4.7
      vertex -13.753 -1.56366 -1.6
      vertex -15.445 -1.94986 -1.6
    endloop
  endfacet
  facet normal -0.900969 0.433884 0
    outer loop
      vertex -13 0 4.7
      vertex -13 0 -1.6
      vertex -13.753 -1.56366 4.7
    endloop
  endfacet
  facet normal -0.900969 0.433884 0
    outer loop
      vertex -13.753 -1.56366 4.7
      vertex -13 0 -1.6
      vertex -13.753 -1.56366 -1.6
    endloop
  endfacet
  facet normal -0.900969 -0.433884 0
    outer loop
      vertex -13 0 4.7
      vertex -13.753 1.56366 4.7
      vertex -13 0 -1.6
    endloop
  endfacet
  facet normal -0.900969 -0.433884 0
    outer loop
      vertex -13 0 -1.6
      vertex -13.753 1.56366 4.7
      vertex -13.753 1.56366 -1.6
    endloop
  endfacet
  facet normal -0.222521 -0.974928 0
    outer loop
      vertex -13.753 1.56366 -1.6
      vertex -13.753 1.56366 4.7
      vertex -15.445 1.94986 4.7
    endloop
  endfacet
  facet normal -0.222521 -0.974928 0
    outer loop
      vertex -15.445 1.94986 -1.6
      vertex -13.753 1.56366 -1.6
      vertex -15.445 1.94986 4.7
    endloop
  endfacet
  facet normal 0.62349 -0.781831 0
    outer loop
      vertex -15.445 1.94986 -1.6
      vertex -15.445 1.94986 4.7
      vertex -16.8019 0.867767 4.7
    endloop
  endfacet
  facet normal 0.62349 -0.781831 0
    outer loop
      vertex -16.8019 0.867767 -1.6
      vertex -15.445 1.94986 -1.6
      vertex -16.8019 0.867767 4.7
    endloop
  endfacet
  facet normal 0.62349 0.781831 0
    outer loop
      vertex 24.555 -1.94986 4.7
      vertex 24.555 -1.94986 -1.6
      vertex 23.1981 -0.867767 4.7
    endloop
  endfacet
  facet normal 0.62349 0.781831 0
    outer loop
      vertex 23.1981 -0.867767 4.7
      vertex 24.555 -1.94986 -1.6
      vertex 23.1981 -0.867767 -1.6
    endloop
  endfacet
  facet normal 1 0 0
    outer loop
      vertex 23.1981 0.867767 -1.6
      vertex 23.1981 0.867767 4.7
      vertex 23.1981 -0.867767 4.7
    endloop
  endfacet
  facet normal 1 0 0
    outer loop
      vertex 23.1981 -0.867767 -1.6
      vertex 23.1981 0.867767 -1.6
      vertex 23.1981 -0.867767 4.7
    endloop
  endfacet
  facet normal -0.222521 0.974928 0
    outer loop
      vertex 26.247 -1.56366 4.7
      vertex 26.247 -1.56366 -1.6
      vertex 24.555 -1.94986 4.7
    endloop
  endfacet
  facet normal -0.222521 0.974928 0
    outer loop
      vertex 24.555 -1.94986 4.7
      vertex 26.247 -1.56366 -1.6
      vertex 24.555 -1.94986 -1.6
    endloop
  endfacet
  facet normal -0.900969 0.433884 0
    outer loop
      vertex 27 0 4.7
      vertex 27 0 -1.6
      vertex 26.247 -1.56366 4.7
    endloop
  endfacet
  facet normal -0.900969 0.433884 0
    outer loop
      vertex 26.247 -1.56366 4.7
      vertex 27 0 -1.6
      vertex 26.247 -1.56366 -1.6
    endloop
  endfacet
  facet normal -0.900969 -0.433884 0
    outer loop
      vertex 27 0 4.7
      vertex 26.247 1.56366 4.7
      vertex 27 0 -1.6
    endloop
  endfacet
  facet normal -0.900969 -0.433884 0
    outer loop
      vertex 27 0 -1.6
      vertex 26.247 1.56366 4.7
      vertex 26.247 1.56366 -1.6
    endloop
  endfacet
  facet normal -0.222521 -0.974928 0
    outer loop
      vertex 26.247 1.56366 -1.6
      vertex 26.247 1.56366 4.7
      vertex 24.555 1.94986 4.7
    endloop
  endfacet
  facet normal -0.222521 -0.974928 0
    outer loop
      vertex 24.555 1.94986 -1.6
      vertex 26.247 1.56366 -1.6
      vertex 24.555 1.94986 4.7
    endloop
  endfacet
  facet normal 0.62349 -0.781831 0
    outer loop
      vertex 24.555 1.94986 -1.6
      vertex 24.555 1.94986 4.7
      vertex 23.1981 0.867767 4.7
    endloop
  endfacet
  facet normal 0.62349 -0.781831 0
    outer loop
      vertex 23.1981 0.867767 -1.6
      vertex 24.555 1.94986 -1.6
      vertex 23.1981 0.867767 4.7
    endloop
  endfacet
  facet normal 0 0 -1
    outer loop
      vertex -15.9657 2.97205 -1.6
      vertex -14.0343 2.97205 -1.6
      vertex -17.5282 1.83683 -1.6
    endloop
  endfacet
  facet normal 0 0 -1
    outer loop
      vertex -15.445 1.94986 -1.6
      vertex -14.0343 2.97205 -1.6
      vertex -12.4718 1.83683 -1.6
    endloop
  endfacet
  facet normal 0 0 -1
    outer loop
      vertex -13.753 1.56366 -1.6
      vertex -12.4718 1.83683 -1.6
      vertex -11.875 0 -1.6
    endloop
  endfacet
  facet normal 0 0 -1
    outer loop
      vertex -13 0 -1.6
      vertex -11.875 0 -1.6
      vertex -12.4718 -1.83683 -1.6
    endloop
  endfacet
  facet normal 0 0 -1
    outer loop
      vertex -13.753 -1.56366 -1.6
      vertex -12.4718 -1.83683 -1.6
      vertex -14.0343 -2.97205 -1.6
    endloop
  endfacet
  facet normal 0 0 -1
    outer loop
      vertex -15.445 -1.94986 -1.6
      vertex -14.0343 -2.97205 -1.6
      vertex -15.9657 -2.97205 -1.6
    endloop
  endfacet
  facet normal 0 0 -1
    outer loop
      vertex -16.8019 -0.867767 -1.6
      vertex -15.9657 -2.97205 -1.6
      vertex -17.5282 -1.83683 -1.6
    endloop
  endfacet
  facet normal 0 0 -1
    outer loop
      vertex -17.5282 1.83683 -1.6
      vertex -17.5282 -1.83683 -1.6
      vertex -18.125 0 -1.6
    endloop
  endfacet
  facet normal 0 0 -1
    outer loop
      vertex -15.445 -1.94986 -1.6
      vertex -15.9657 -2.97205 -1.6
      vertex -16.8019 -0.867767 -1.6
    endloop
  endfacet
  facet normal 0 0 -1
    outer loop
      vertex -17.5282 1.83683 -1.6
      vertex -16.8019 -0.867767 -1.6
      vertex -17.5282 -1.83683 -1.6
    endloop
  endfacet
  facet normal 0 0 -1
    outer loop
      vertex -13 0 -1.6
      vertex -12.4718 -1.83683 -1.6
      vertex -13.753 -1.56366 -1.6
    endloop
  endfacet
  facet normal 0 0 -1
    outer loop
      vertex -13.753 1.56366 -1.6
      vertex -11.875 0 -1.6
      vertex -13 0 -1.6
    endloop
  endfacet
  facet normal 0 0 -1
    outer loop
      vertex -15.445 1.94986 -1.6
      vertex -12.4718 1.83683 -1.6
      vertex -13.753 1.56366 -1.6
    endloop
  endfacet
  facet normal 0 0 -1
    outer loop
      vertex -17.5282 1.83683 -1.6
      vertex -14.0343 2.97205 -1.6
      vertex -15.445 1.94986 -1.6
    endloop
  endfacet
  facet normal 0 0 -1
    outer loop
      vertex -16.8019 0.867767 -1.6
      vertex -17.5282 1.83683 -1.6
      vertex -15.445 1.94986 -1.6
    endloop
  endfacet
  facet normal 0 0 -1
    outer loop
      vertex -16.8019 -0.867767 -1.6
      vertex -17.5282 1.83683 -1.6
      vertex -16.8019 0.867767 -1.6
    endloop
  endfacet
  facet normal 0 0 -1
    outer loop
      vertex -13.753 -1.56366 -1.6
      vertex -14.0343 -2.97205 -1.6
      vertex -15.445 -1.94986 -1.6
    endloop
  endfacet
  facet normal 0 0 -1
    outer loop
      vertex 24.0343 2.97205 -1.6
      vertex 25.9657 2.97205 -1.6
      vertex 22.4718 1.83683 -1.6
    endloop
  endfacet
  facet normal 0 0 -1
    outer loop
      vertex 24.555 1.94986 -1.6
      vertex 25.9657 2.97205 -1.6
      vertex 27.5282 1.83683 -1.6
    endloop
  endfacet
  facet normal 0 0 -1
    outer loop
      vertex 26.247 1.56366 -1.6
      vertex 27.5282 1.83683 -1.6
      vertex 28.125 0 -1.6
    endloop
  endfacet
  facet normal 0 0 -1
    outer loop
      vertex 27 0 -1.6
      vertex 28.125 0 -1.6
      vertex 27.5282 -1.83683 -1.6
    endloop
  endfacet
  facet normal 0 0 -1
    outer loop
      vertex 26.247 -1.56366 -1.6
      vertex 27.5282 -1.83683 -1.6
      vertex 25.9657 -2.97205 -1.6
    endloop
  endfacet
  facet normal 0 0 -1
    outer loop
      vertex 24.555 -1.94986 -1.6
      vertex 25.9657 -2.97205 -1.6
      vertex 24.0343 -2.97205 -1.6
    endloop
  endfacet
  facet normal 0 0 -1
    outer loop
      vertex 23.1981 -0.867767 -1.6
      vertex 24.0343 -2.97205 -1.6
      vertex 22.4718 -1.83683 -1.6
    endloop
  endfacet
  facet normal 0 0 -1
    outer loop
      vertex 22.4718 1.83683 -1.6
      vertex 22.4718 -1.83683 -1.6
      vertex 21.875 0 -1.6
    endloop
  endfacet
  facet normal 0 0 -1
    outer loop
      vertex 24.555 -1.94986 -1.6
      vertex 24.0343 -2.97205 -1.6
      vertex 23.1981 -0.867767 -1.6
    endloop
  endfacet
  facet normal 0 0 -1
    outer loop
      vertex 22.4718 1.83683 -1.6
      vertex 23.1981 -0.867767 -1.6
      vertex 22.4718 -1.83683 -1.6
    endloop
  endfacet
  facet normal 0 0 -1
    outer loop
      vertex 27 0 -1.6
      vertex 27.5282 -1.83683 -1.6
      vertex 26.247 -1.56366 -1.6
    endloop
  endfacet
  facet normal 0 0 -1
    outer loop
      vertex 26.247 1.56366 -1.6
      vertex 28.125 0 -1.6
      vertex 27 0 -1.6
    endloop
  endfacet
  facet normal 0 0 -1
    outer loop
      vertex 24.555 1.94986 -1.6
      vertex 27.5282 1.83683 -1.6
      vertex 26.247 1.56366 -1.6
    endloop
  endfacet
  facet normal 0 0 -1
    outer loop
      vertex 22.4718 1.83683 -1.6
      vertex 25.9657 2.97205 -1.6
      vertex 24.555 1.94986 -1.6
    endloop
  endfacet
  facet normal 0 0 -1
    outer loop
      vertex 23.1981 0.867767 -1.6
      vertex 22.4718 1.83683 -1.6
      vertex 24.555 1.94986 -1.6
    endloop
  endfacet
  facet normal 0 0 -1
    outer loop
      vertex 23.1981 -0.867767 -1.6
      vertex 22.4718 1.83683 -1.6
      vertex 23.1981 0.867767 -1.6
    endloop
  endfacet
  facet normal 0 0 -1
    outer loop
      vertex 26.247 -1.56366 -1.6
      vertex 25.9657 -2.97205 -1.6
      vertex 24.555 -1.94986 -1.6
    endloop
  endfacet
endsolid OpenSCAD_Model
